<svg width="65" height="80" viewBox="0 0 65 80" fill="none" xmlns="http://www.w3.org/2000/svg">
<path d="M0 0.470703H64.1868V64.6575H0V0.470703Z" fill="white"/>
<path d="M12.571 45.2678L15.5171 44.641V20.6336L12.2576 20.0068V16.3295H21.5973V29.2002C22.3077 28.1555 23.1783 27.3476 24.2091 26.7765C25.2398 26.1915 26.382 25.899 27.6357 25.899C30.0037 25.899 31.8563 26.686 33.1935 28.26C34.5447 29.8201 35.2203 32.2369 35.2203 35.5103V44.641L38.1455 45.2678V48.9243H26.4865V45.2678L29.1192 44.641V35.4685C29.1192 33.7134 28.8058 32.4736 28.1789 31.7493C27.566 31.0111 26.6467 30.6419 25.4209 30.6419C24.5712 30.6419 23.826 30.7952 23.1852 31.1016C22.5584 31.4081 22.0291 31.8399 21.5973 32.397V44.641L24.2299 45.2678V48.9243H12.571V45.2678Z" fill="#EEF1F2"/>
<path d="M39.9215 45.2678L42.8675 44.641V30.621L39.608 29.9942V26.3168H48.9686V44.641L51.8938 45.2678V48.9243H39.9215V45.2678ZM48.9686 20.9053H42.8675V16.3295H48.9686V20.9053Z" fill="#EEF1F2"/>
<path d="M0.00342751 79.7603L0.00342883 64.6576L15.1062 64.6576L0.00342751 79.7603Z" fill="white"/>
</svg>
